<svg width="62" height="58" viewBox="0 0 62 58" fill="none" xmlns="http://www.w3.org/2000/svg">
<path d="M62 12.95C62 11.108 61.28 9.366 59.956 8.028C58.634 6.72 56.892 6 55.05 6C53.598 6 52.175 6.474 51 7.314V5C51 2.243 48.757 0 46 0H12C9.955 0 8.198 1.237 7.424 3H5C2.243 3 0 5.243 0 8C0 10.757 2.243 13 5 13H7V17H5C2.243 17 0 19.243 0 22C0 24.757 2.243 27 5 27H7V31H5C2.243 31 0 33.243 0 36C0 38.757 2.243 41 5 41H7V45H5C2.243 45 0 47.243 0 50C0 52.757 2.243 55 5 55H7.424C8.198 56.763 9.955 58 12 58H46C48.757 58 51 55.757 51 53V26.828L59.964 17.864C61.258 16.57 62 14.779 62 12.95ZM37 35.172L32.828 31L49.5 14.328L53.672 18.5L37 35.172ZM40 18.172L35.172 23H18V11H40V18.172ZM30.954 34.782L33.219 37.047L29.984 38.018L30.954 34.782ZM5 9C4.449 9 4 8.551 4 8C4 7.449 4.449 7 5 7H7V9H5ZM5 23C4.449 23 4 22.551 4 22C4 21.449 4.449 21 5 21H7V23H5ZM5 37C4.449 37 4 36.551 4 36C4 35.449 4.449 35 5 35H7V37H5ZM4 50C4 49.449 4.449 49 5 49H7V51H5C4.449 51 4 50.551 4 50ZM46 54H12C11.449 54 11 53.551 11 53V49H47V53C47 53.551 46.551 54 46 54ZM47 45H11V39V33V25V19V11V5C11 4.449 11.449 4 12 4H46C46.551 4 47 4.449 47 5V11.172L44 14.172V9C44 7.896 43.104 7 42 7H16C14.896 7 14 7.896 14 9V25C14 26.104 14.896 27 16 27H31.172L28.586 29.586C28.352 29.82 28.18 30.108 28.085 30.425L25.085 40.425C24.874 41.13 25.066 41.894 25.586 42.414C25.966 42.795 26.478 43 27 43C27.192 43 27.386 42.972 27.575 42.916L37.575 39.916C37.892 39.821 38.18 39.649 38.414 39.415L47 30.828V45ZM57.136 15.036L56.5 15.672L52.328 11.5L52.964 10.864C54.066 9.762 56.025 9.766 57.128 10.856C57.69 11.425 58 12.169 58 12.95C58 13.727 57.685 14.487 57.136 15.036Z" fill="#E1E1E1"/>
</svg>
