<svg width="96" height="96" viewBox="0 0 96 96" fill="none" xmlns="http://www.w3.org/2000/svg">
<path d="M35 37C38.3137 37 41 34.3137 41 31C41 27.6863 38.3137 25 35 25C31.6863 25 29 27.6863 29 31C29 34.3137 31.6863 37 35 37Z" stroke="#E1E1E1" stroke-width="5"/>
<path d="M68 16H86M77 7V25M52.5 9H24C15.7157 9 9 15.7157 9 24V71C9 79.2843 15.7157 86 24 86H71C79.2843 86 86 79.2843 86 71V52.5V49.3137C86 47.192 85.1571 45.1571 83.6569 43.6569L79.182 39.182C77.4246 37.4246 74.5754 37.4246 72.818 39.182L51.682 60.318C49.9246 62.0754 47.0754 62.0754 45.318 60.318L39.682 54.682C37.9246 52.9246 35.0754 52.9246 33.318 54.682L11 77" stroke="#E1E1E1" stroke-width="5" stroke-linecap="round"/>
</svg>
