<svg width="60" height="50" viewBox="0 0 60 50" fill="none" xmlns="http://www.w3.org/2000/svg">
<path d="M29.33 16.48C27.555 16.479 25.8448 17.1467 24.54 18.35C24.277 18.1275 23.9445 18.0037 23.6 18C22.5347 18.009 21.478 17.8085 20.49 17.41C21.8907 15.5839 22.75 13.4009 22.97 11.11H23.63C24.0278 11.11 24.4094 10.952 24.6907 10.6707C24.972 10.3894 25.13 10.0078 25.13 9.61C25.13 9.21218 24.972 8.83064 24.6907 8.54934C24.4094 8.26804 24.0278 8.11 23.63 8.11H19.34V5.78C19.34 5.38217 19.182 5.00064 18.9007 4.71934C18.6194 4.43803 18.2378 4.28 17.84 4.28C17.4422 4.28 17.0606 4.43803 16.7793 4.71934C16.498 5.00064 16.34 5.38217 16.34 5.78V8.12H12.08C11.6822 8.12 11.3006 8.27804 11.0193 8.55934C10.738 8.84064 10.58 9.22218 10.58 9.62C10.58 10.0178 10.738 10.3994 11.0193 10.6807C11.3006 10.962 11.6822 11.12 12.08 11.12H19.92C19.7168 12.786 19.0517 14.362 18 15.67C17.2377 14.8102 16.641 13.8168 16.24 12.74C16.1854 12.5412 16.0904 12.3558 15.961 12.1953C15.8315 12.0348 15.6703 11.9028 15.4876 11.8074C15.3048 11.712 15.1043 11.6553 14.8986 11.6409C14.693 11.6264 14.4865 11.6545 14.2922 11.7234C14.0979 11.7923 13.9199 11.9006 13.7692 12.0414C13.6186 12.1822 13.4987 12.3525 13.4168 12.5417C13.335 12.7309 13.293 12.935 13.2935 13.1412C13.2941 13.3474 13.3371 13.5512 13.42 13.74C13.9115 15.0613 14.6251 16.289 15.53 17.37C14.4379 17.7834 13.2776 17.987 12.11 17.97C11.7122 17.97 11.3306 18.128 11.0493 18.4093C10.768 18.6906 10.61 19.0722 10.61 19.47C10.61 19.8678 10.768 20.2494 11.0493 20.5307C11.3306 20.812 11.7122 20.97 12.11 20.97C14.1669 21.0386 16.2035 20.5441 18 19.54C19.4306 20.3965 21.0458 20.8972 22.71 21C22.3723 21.8357 22.1991 22.7287 22.2 23.63V24.75H11.77C11.5537 24.7494 11.3399 24.7955 11.1431 24.8853C10.9463 24.975 10.7713 25.1063 10.63 25.27C10.4874 25.434 10.383 25.6276 10.3242 25.8368C10.2654 26.0461 10.2537 26.2657 10.29 26.48C10.29 26.58 10.48 27.71 10.82 29.3C10.8585 29.4972 10.8367 29.7014 10.7574 29.886C10.6782 30.0706 10.5452 30.227 10.3757 30.3349C10.2063 30.4429 10.0083 30.4973 9.80748 30.491C9.60668 30.4848 9.41242 30.4182 9.25 30.3C6.1 28 2.74 25.2 1.69 23.23C1.64586 23.1497 1.59572 23.0728 1.54 23C1.05647 22.3119 0.797955 21.491 0.8 20.65V4.52C0.8 3.42466 1.23512 2.37417 2.00965 1.59965C2.78417 0.825124 3.83466 0.39 4.93 0.39H30.67C31.7653 0.39 32.8158 0.825124 33.5904 1.59965C34.3649 2.37417 34.8 3.42466 34.8 4.52V16.52L29.33 16.48ZM59.2 23.61V39.7C59.2067 40.5417 58.9478 41.364 58.46 42.05C58.3983 42.133 58.3478 42.2238 58.31 42.32C57.31 44.32 53.9 47.09 50.75 49.41C50.5876 49.5282 50.3933 49.5948 50.1925 49.601C49.9917 49.6073 49.7937 49.5529 49.6243 49.445C49.4548 49.337 49.3218 49.1806 49.2426 48.996C49.1633 48.8114 49.1415 48.6072 49.18 48.41C49.52 46.81 49.7 45.68 49.71 45.58C49.7449 45.3661 49.7327 45.1471 49.6743 44.9383C49.6159 44.7296 49.5126 44.5361 49.3717 44.3714C49.2308 44.2066 49.0556 44.0747 48.8584 43.9846C48.6612 43.8946 48.4468 43.8486 48.23 43.85H29.33C28.786 43.85 28.2473 43.7425 27.7449 43.5337C27.2425 43.3249 26.7863 43.0189 26.4026 42.6333C26.0188 42.2477 25.715 41.79 25.5086 41.2866C25.3022 40.7832 25.1974 40.244 25.2 39.7V23.61C25.2 22.5147 25.6351 21.4642 26.4096 20.6897C27.1842 19.9151 28.2347 19.48 29.33 19.48H55.07C56.1653 19.48 57.2158 19.9151 57.9904 20.6897C58.7649 21.4642 59.2 22.5147 59.2 23.61ZM48.78 37.61L47.05 33.3L43.63 24.74C43.6075 24.6815 43.5807 24.6247 43.55 24.57L43.49 24.47L43.4 24.35L43.31 24.25L43.21 24.16L43.08 24.06L43 24L42.84 23.91C42.8068 23.9056 42.7732 23.9056 42.74 23.91L42.58 23.86H42L41.83 23.91C41.7968 23.9056 41.7632 23.9056 41.73 23.91L41.58 24L41.47 24.05L41.35 24.15L41.25 24.24L41.16 24.34L41.06 24.46C41.06 24.46 41.06 24.53 41.01 24.56L40.92 24.73L37.42 33.3L35.69 37.62C35.6105 37.8061 35.5692 38.0062 35.5686 38.2086C35.568 38.4109 35.6081 38.6113 35.6864 38.7979C35.7648 38.9845 35.8798 39.1534 36.0247 39.2946C36.1697 39.4358 36.3415 39.5465 36.53 39.62C36.7082 39.691 36.8981 39.7283 37.09 39.73C37.3957 39.7236 37.6923 39.6246 37.9405 39.4461C38.1887 39.2675 38.3768 39.0178 38.48 38.73L39.82 35.38H44.66L46 38.73C46.1007 39.0194 46.2883 39.2707 46.537 39.4496C46.7857 39.6286 47.0836 39.7265 47.39 39.73C47.5785 39.7273 47.7649 39.69 47.94 39.62C48.1294 39.5476 48.3022 39.4376 48.4479 39.2966C48.5936 39.1556 48.7092 38.9866 48.7877 38.7996C48.8662 38.6127 48.906 38.4118 48.9047 38.209C48.9033 38.0063 48.8609 37.8059 48.78 37.62V37.61ZM41 32.38H43.44L42.22 29.38L41 32.38Z" fill="#E1E1E1"/>
</svg>
