<svg width="32" height="32" viewBox="0 0 32 32" fill="none" xmlns="http://www.w3.org/2000/svg">
<path d="M26 8C26 8.553 25.552 9 25 9H11.802L9.976 17.217C9.881 17.646 9.518 17.961 9.081 17.997C9.054 17.999 9.026 18 8.999 18C8.593 18 8.224 17.753 8.071 17.371L6.071 12.371C5.866 11.858 6.115 11.276 6.628 11.071C7.143 10.865 7.723 11.115 7.928 11.629L8.725 13.623L10.023 7.783C10.125 7.325 10.53 7 10.999 7H24.999C25.551 7 26 7.447 26 8ZM30 5V20C30 21.654 28.654 23 27 23H19V28H22C22.552 28 23 28.447 23 29C23 29.553 22.552 30 22 30H10C9.448 30 9 29.553 9 29C9 28.447 9.448 28 10 28H13V23H5C3.346 23 2 21.654 2 20V5C2 3.346 3.346 2 5 2H27C28.654 2 30 3.346 30 5ZM17 23H15V28H17V23ZM28 5C28 4.448 27.551 4 27 4H5C4.449 4 4 4.448 4 5V20C4 20.552 4.449 21 5 21H27C27.551 21 28 20.552 28 20V5ZM20.784 11.216C20.393 10.825 19.761 10.825 19.37 11.216L18 12.586L16.63 11.216C16.239 10.825 15.607 10.825 15.216 11.216C14.825 11.607 14.825 12.239 15.216 12.63L16.586 14L15.216 15.37C14.825 15.761 14.825 16.393 15.216 16.784C15.411 16.979 15.667 17.077 15.923 17.077C16.179 17.077 16.435 16.979 16.63 16.784L18 15.414L19.37 16.784C19.565 16.979 19.821 17.077 20.077 17.077C20.333 17.077 20.589 16.979 20.784 16.784C21.175 16.393 21.175 15.761 20.784 15.37L19.414 14L20.784 12.63C21.175 12.239 21.175 11.607 20.784 11.216Z" fill="#E1E1E1"/>
</svg>
