<svg width="416" height="416" viewBox="0 0 416 416" fill="none" xmlns="http://www.w3.org/2000/svg">
<path d="M208 0C93.124 0 0 93.125 0 208C0 322.875 93.124 416 208 416C322.875 416 416 322.875 416 208C416 93.125 322.875 0 208 0ZM186.451 384.999C146.987 380.273 110.473 362.607 81.932 334.067C48.258 300.393 29.714 255.622 29.714 208C29.714 165.13 44.75 124.576 72.315 92.341C73.025 100.858 74.778 109.989 74.329 116.516C72.689 140.311 70.341 155.203 84.269 175.278C89.695 183.097 91.028 194.306 93.669 203.356C96.252 212.21 106.571 216.854 113.688 222.309C128.047 233.318 141.784 246.114 157.01 255.803C167.059 262.198 173.336 265.379 170.393 277.642C168.026 287.504 167.365 293.579 162.263 302.365C160.706 305.046 168.14 322.283 170.614 324.757C178.112 332.254 185.552 339.132 193.725 345.882C206.396 356.351 192.494 369.954 186.451 384.999ZM334.067 334.067C308.434 359.7 276.368 376.553 241.511 383.148C246.451 370.932 255.247 360.078 263.406 353.786C270.503 348.31 279.392 337.777 283.099 329.434C286.803 321.102 291.71 313.879 296.676 306.217C303.741 295.318 279.257 278.881 271.323 275.436C253.469 267.685 240.029 257.226 224.162 246.061C212.857 238.107 189.905 250.215 177.142 244.644C159.661 237.011 145.259 223.748 130.064 212.305C114.384 200.496 115.142 186.729 115.142 169.308C127.424 169.761 144.896 165.909 153.05 175.786C155.623 178.903 164.47 192.828 170.392 187.88C175.23 183.837 166.807 167.631 165.18 163.821C160.175 152.106 176.584 147.537 184.983 139.593C195.943 129.229 219.453 112.975 217.595 105.546C215.737 98.117 194.071 77.069 181.346 80.353C179.439 80.845 162.649 98.45 159.405 101.212C159.491 95.466 159.577 89.721 159.665 83.975C159.72 80.347 152.897 76.623 153.214 74.283C154.014 68.369 170.476 57.636 174.571 52.926C171.702 51.133 161.912 42.724 158.949 43.958C151.775 46.948 143.673 49.008 136.499 51.997C136.499 49.509 136.197 47.172 135.837 44.864C150.284 38.473 165.523 34.0495 181.147 31.712L195.231 37.372L205.175 49.173L215.099 59.406L223.774 62.201L237.553 49.206L234 39.929V31.59C261.25 35.548 286.984 45.714 309.522 61.39C305.49 61.751 301.059 62.344 296.06 62.98C293.995 61.76 291.346 61.206 289.095 60.357C295.626 74.399 302.438 88.247 309.359 102.103C316.752 116.904 333.152 132.78 336.032 148.404C339.426 166.82 337.071 183.548 338.928 205.215C340.716 226.08 362.452 249.787 362.452 249.787C362.452 249.787 372.489 253.206 380.836 252.015C373.055 282.798 357.103 311.029 334.067 334.067Z" fill="#E1E1E1"/>
</svg>
